<svg id="Layer_1" data-name="Layer 1" xmlns="http://www.w3.org/2000/svg" viewBox="0 0 360 360">
    <defs>
        <style>.cls-1{fill:#7a8687;}</style>
    </defs>
    <path class="cls-1"
          d="M288,468c-99.25,0-180-80.75-180-180s80.75-180,180-180,180,80.75,180,180S387.25,468,288,468Zm0-343.9c-90.37,0-163.9,73.52-163.9,163.9S197.63,451.9,288,451.9,451.9,378.37,451.9,288,378.37,124.1,288,124.1Z"
          transform="translate(-108 -108)"/>
    <path class="cls-1"
          d="M312,406H253V293.63H229.3V242H253V217.9c-.29-3.16-1-19.74,14.56-34.41,1.93-2.12,12.91-13.09,32.94-13.28l5.59-.2h40.33v48.12H316.2c-1.76.15-4.24,1.36-4.24,6.18v17.5h34.83l-3.6,52H312ZM265.1,393.92h34.77V281.77h32l1.93-27.88h-34V224.3c0-13,9.64-18,16.12-18.25h18.37v-24H306.11l-5.31.19c-16.12.15-24.19,9.23-24.27,9.32l-.5.52c-12.39,11.59-11,24.51-11,24.64l.06.83v36.49H241.37v27.48H265.1Z"
          transform="translate(-108 -108)"/>
</svg>