<svg id="Layer_1" data-name="Layer 1" xmlns="http://www.w3.org/2000/svg" viewBox="0 0 360 360">
    <defs>
        <style>.cls-1{fill:#7a8687;}.cls-2{fill:#7a8687;}</style>
    </defs>
    <path class="cls-1"
          d="M288,468c-99.25,0-180-80.75-180-180s80.75-180,180-180,180,80.75,180,180S387.25,468,288,468Zm0-343.9c-90.37,0-163.9,73.52-163.9,163.9S197.63,451.9,288,451.9,451.9,378.37,451.9,288,378.37,124.1,288,124.1Z"
          transform="translate(-108 -108)"/>
    <path class="cls-2"
          d="M288,205.06c27,0,30.21.1,40.88.59,9.86.45,15.22,2.1,18.79,3.48a33.5,33.5,0,0,1,19.2,19.2c1.39,3.56,3,8.92,3.48,18.79.49,10.67.59,13.87.59,40.88s-.1,30.21-.59,40.88c-.45,9.86-2.1,15.22-3.48,18.79a33.5,33.5,0,0,1-19.2,19.2c-3.56,1.39-8.92,3-18.79,3.48-10.67.49-13.87.59-40.88.59s-30.21-.1-40.88-.59c-9.86-.45-15.22-2.1-18.79-3.48a33.5,33.5,0,0,1-19.2-19.2c-1.39-3.56-3-8.92-3.48-18.79-.49-10.67-.59-13.87-.59-40.88s.1-30.21.59-40.88c.45-9.86,2.1-15.22,3.48-18.79a33.5,33.5,0,0,1,19.2-19.2c3.56-1.39,8.92-3,18.79-3.48,10.67-.49,13.87-.59,40.88-.59m0-18.23c-27.48,0-30.92.12-41.71.61s-18.12,2.2-24.56,4.7a51.73,51.73,0,0,0-29.59,29.59c-2.5,6.44-4.21,13.79-4.7,24.56s-.61,14.24-.61,41.71.12,30.92.61,41.71,2.2,18.12,4.7,24.56a51.73,51.73,0,0,0,29.59,29.59c6.44,2.5,13.79,4.21,24.56,4.7s14.24.61,41.71.61,30.92-.12,41.71-.61,18.12-2.2,24.56-4.7a51.73,51.73,0,0,0,29.59-29.59c2.5-6.44,4.21-13.79,4.7-24.56s.61-14.24.61-41.71-.12-30.92-.61-41.71-2.2-18.12-4.7-24.56a51.73,51.73,0,0,0-29.59-29.59c-6.44-2.5-13.79-4.21-24.56-4.7s-14.24-.61-41.71-.61Z"
          transform="translate(-108 -108)"/>
    <path class="cls-2"
          d="M288,236a52,52,0,1,0,52,52A52,52,0,0,0,288,236Zm0,85.67A33.72,33.72,0,1,1,321.72,288,33.72,33.72,0,0,1,288,321.72Z"
          transform="translate(-108 -108)"/>
    <circle class="cls-2" cx="234" cy="126" r="12.14"/>
</svg>