<svg id="Layer_1" data-name="Layer 1" xmlns="http://www.w3.org/2000/svg" viewBox="0 0 360 360">
    <defs>
        <style>.cls-1{fill:#ffffff;}</style>
    </defs>
    <path class="cls-1"
          d="M288,468c-99.25,0-180-80.75-180-180s80.75-180,180-180,180,80.75,180,180S387.25,468,288,468Zm0-343.89c-90.37,0-163.89,73.52-163.89,163.89S197.63,451.89,288,451.89,451.9,378.37,451.9,288,378.37,124.11,288,124.11Z"
          transform="translate(-108 -108)"/>
    <path class="cls-1"
          d="M222.08,384.45a30.24,30.24,0,1,1,30.23-30.23A30.26,30.26,0,0,1,222.08,384.45Zm0-48.39a18.16,18.16,0,1,0,18.15,18.17A18.18,18.18,0,0,0,222.08,336.06Z"
          transform="translate(-108 -108)"/>
    <path class="cls-1"
          d="M323.31,383.39H276.79v-6A77.81,77.81,0,0,0,254,322a76.8,76.8,0,0,0-54.87-22.84h-6V252.63h6c68.47,0,124.17,56,124.17,124.72Zm-34.64-12.08h22.41C308,314,262.2,267.93,205.18,264.87v22.45a88.68,88.68,0,0,1,57.4,26.2A89.65,89.65,0,0,1,288.67,371.31Z"
          transform="translate(-108 -108)"/>
    <path class="cls-1"
          d="M384.15,383.44H337.64v-6c0-76.81-62.1-139.31-138.44-139.31h-6V191.55h6c102,0,185,83.37,185,185.84ZM349.6,371.36H372c-3.11-91-76.19-164.49-166.73-167.62v22.4C283.45,229.25,346.51,292.69,349.6,371.36Z"
          transform="translate(-108 -108)"/>
    <path class="cls-1"
          d="M222.08,384.45a30.24,30.24,0,1,1,30.23-30.23A30.26,30.26,0,0,1,222.08,384.45Zm0-48.39a18.16,18.16,0,1,0,18.15,18.17A18.18,18.18,0,0,0,222.08,336.06Z"
          transform="translate(-108 -108)"/>
    <path class="cls-1"
          d="M323.31,383.39H276.79v-6A77.81,77.81,0,0,0,254,322a76.8,76.8,0,0,0-54.87-22.84h-6V252.63h6c68.47,0,124.17,56,124.17,124.72Zm-34.64-12.08h22.41C308,314,262.2,267.93,205.18,264.87v22.45a88.68,88.68,0,0,1,57.4,26.2A89.65,89.65,0,0,1,288.67,371.31Z"
          transform="translate(-108 -108)"/>
    <path class="cls-1"
          d="M384.15,383.44H337.64v-6c0-76.81-62.1-139.31-138.44-139.31h-6V191.55h6c102,0,185,83.37,185,185.84ZM349.6,371.36H372c-3.11-91-76.19-164.49-166.73-167.62v22.4C283.45,229.25,346.51,292.69,349.6,371.36Z"
          transform="translate(-108 -108)"/>
</svg>