<svg id="Layer_1" data-name="Layer 1" xmlns="http://www.w3.org/2000/svg" viewBox="0 0 360 360">
    <defs>
        <style>.cls-1{fill:#7a8687;}</style>
    </defs>
    <path class="cls-1"
          d="M288,468c-99.25,0-180-80.75-180-180s80.75-180,180-180,180,80.75,180,180S387.25,468,288,468Zm0-343.9c-90.37,0-163.9,73.52-163.9,163.9S197.63,451.9,288,451.9,451.9,378.37,451.9,288,378.37,124.1,288,124.1Z"
          transform="translate(-108 -108)"/>
    <path class="cls-1"
          d="M252,388.91A131.59,131.59,0,0,1,180.83,368l4-11.08a84.59,84.59,0,0,0,9.86.57,82.42,82.42,0,0,0,39.12-9.73,50.31,50.31,0,0,1-31.24-32.12l-3.1-9.68,3.57.68a50.43,50.43,0,0,1-16.29-37l.22-10.7,6.72,3.74a50.43,50.43,0,0,1,.24-50.24l4.39-7.53,5.51,6.76a120.2,120.2,0,0,0,79.56,43.47q-.12-1.72-.12-3.46a50.36,50.36,0,0,1,84.6-36.91A82.64,82.64,0,0,0,391,205.43l13.67-8.11-4.84,15.14a50,50,0,0,1-5.35,11.48q1.57-.62,3.12-1.31l19-8.45L405,231.51a95.38,95.38,0,0,1-21,22.52c0,.93,0,1.85,0,2.78C384.08,321.75,334.68,388.91,252,388.91Zm-43.54-20.26A119.59,119.59,0,0,0,252,376.83c75.12,0,120-61,120-120,0-1.84,0-3.66-.12-5.47l-.14-3.26,2.64-1.91a83.15,83.15,0,0,0,7.48-6.07q-3.26.62-6.57,1L371.47,230a38.77,38.77,0,0,0,7.42-5.78,95,95,0,0,1-11.8,3.12l-3.28.64-2.29-2.44a38.31,38.31,0,0,0-65.21,34.91l1.81,7.8-8-.4a132.21,132.21,0,0,1-89.3-41.23,38.32,38.32,0,0,0,15.36,43l17.53,11.72-21.08-.66a50.14,50.14,0,0,1-12.78-2.08,38.36,38.36,0,0,0,29.63,28.58l.39,11.75a50.58,50.58,0,0,1-11.82,1.75,38.28,38.28,0,0,0,31.72,17.91l17,.31L253.4,349.37A94.2,94.2,0,0,1,208.46,368.64Z"
          transform="translate(-108 -108)"/>
</svg>