<svg version="1.1" id="Layer_1" xmlns="http://www.w3.org/2000/svg" viewBox="0 0 216 216">
<style type="text/css">
	.st0{fill:#8f70b2;}
</style>
<g>
	<g>
		<g>
			<g>
				<path class="st0" d="M147.4,81.3H68.5c-4.8,0-8.8-3.9-8.8-8.8V50.3c0-4.8,3.9-8.8,8.8-8.8h78.9c4.8,0,8.8,3.9,8.8,8.8v22.2
					C156.2,77.3,152.3,81.3,147.4,81.3z M68.5,45.5c-2.7,0-4.8,2.2-4.8,4.8v22.2c0,2.7,2.2,4.8,4.8,4.8h78.9c2.7,0,4.8-2.2,4.8-4.8
					V50.3c0-2.7-2.2-4.8-4.8-4.8H68.5z"/>
			</g>
		</g>
	</g>
	<g>
		<g>
			<g>
				<g>
					<path class="st0" d="M72.9,106.9h-7.8c-2.2,0-4-1.8-4-4V95c0-2.2,1.8-4,4-4h7.8c2.2,0,4,1.8,4,4v7.8
						C77,105.1,75.2,106.9,72.9,106.9z M65.2,93c-1.1,0-2,0.9-2,2v7.8c0,1.1,0.9,2,2,2h7.8c1.1,0,2-0.9,2-2V95c0-1.1-0.9-2-2-2H65.2
						z"/>
				</g>
			</g>
		</g>
		<g>
			<g>
				<g>
					<path class="st0" d="M97.7,106.9h-7.8c-2.2,0-4-1.8-4-4V95c0-2.2,1.8-4,4-4h7.8c2.2,0,4,1.8,4,4v7.8
						C101.7,105.1,99.9,106.9,97.7,106.9z M89.9,93c-1.1,0-2,0.9-2,2v7.8c0,1.1,0.9,2,2,2h7.8c1.1,0,2-0.9,2-2V95c0-1.1-0.9-2-2-2
						H89.9z"/>
				</g>
			</g>
		</g>
		<g>
			<g>
				<g>
					<path class="st0" d="M123.8,106.9H116c-2.2,0-4-1.8-4-4V95c0-2.2,1.8-4,4-4h7.8c2.2,0,4,1.8,4,4v7.8
						C127.8,105.1,126,106.9,123.8,106.9z M116,93c-1.1,0-2,0.9-2,2v7.8c0,1.1,0.9,2,2,2h7.8c1.1,0,2-0.9,2-2V95c0-1.1-0.9-2-2-2
						H116z"/>
				</g>
			</g>
		</g>
		<g>
			<g>
				<g>
					<path class="st0" d="M149.5,106.9h-7.8c-2.2,0-4-1.8-4-4V95c0-2.2,1.8-4,4-4h7.8c2.2,0,4,1.8,4,4v7.8
						C153.5,105.1,151.7,106.9,149.5,106.9z M141.7,93c-1.1,0-2,0.9-2,2v7.8c0,1.1,0.9,2,2,2h7.8c1.1,0,2-0.9,2-2V95
						c0-1.1-0.9-2-2-2H141.7z"/>
				</g>
			</g>
		</g>
	</g>
	<g>
		<g>
			<g>
				<g>
					<path class="st0" d="M72.9,134.6h-7.8c-2.2,0-4-1.8-4-4v-7.8c0-2.2,1.8-4,4-4h7.8c2.2,0,4,1.8,4,4v7.8
						C77,132.8,75.2,134.6,72.9,134.6z M65.2,120.7c-1.1,0-2,0.9-2,2v7.8c0,1.1,0.9,2,2,2h7.8c1.1,0,2-0.9,2-2v-7.8c0-1.1-0.9-2-2-2
						H65.2z"/>
				</g>
			</g>
		</g>
		<g>
			<g>
				<g>
					<path class="st0" d="M97.7,134.6h-7.8c-2.2,0-4-1.8-4-4v-7.8c0-2.2,1.8-4,4-4h7.8c2.2,0,4,1.8,4,4v7.8
						C101.7,132.8,99.9,134.6,97.7,134.6z M89.9,120.7c-1.1,0-2,0.9-2,2v7.8c0,1.1,0.9,2,2,2h7.8c1.1,0,2-0.9,2-2v-7.8
						c0-1.1-0.9-2-2-2H89.9z"/>
				</g>
			</g>
		</g>
		<g>
			<g>
				<g>
					<path class="st0" d="M123.8,134.6H116c-2.2,0-4-1.8-4-4v-7.8c0-2.2,1.8-4,4-4h7.8c2.2,0,4,1.8,4,4v7.8
						C127.8,132.8,126,134.6,123.8,134.6z M116,120.7c-1.1,0-2,0.9-2,2v7.8c0,1.1,0.9,2,2,2h7.8c1.1,0,2-0.9,2-2v-7.8
						c0-1.1-0.9-2-2-2H116z"/>
				</g>
			</g>
		</g>
		<g>
			<g>
				<g>
					<path class="st0" d="M149.5,134.6h-7.8c-2.2,0-4-1.8-4-4v-7.8c0-2.2,1.8-4,4-4h7.8c2.2,0,4,1.8,4,4v7.8
						C153.5,132.8,151.7,134.6,149.5,134.6z M141.7,120.7c-1.1,0-2,0.9-2,2v7.8c0,1.1,0.9,2,2,2h7.8c1.1,0,2-0.9,2-2v-7.8
						c0-1.1-0.9-2-2-2H141.7z"/>
				</g>
			</g>
		</g>
	</g>
	<g>
		<g>
			<g>
				<g>
					<path class="st0" d="M72.9,164.3h-7.8c-2.2,0-4-1.8-4-4v-7.8c0-2.2,1.8-4,4-4h7.8c2.2,0,4,1.8,4,4v7.8
						C77,162.5,75.2,164.3,72.9,164.3z M65.2,150.5c-1.1,0-2,0.9-2,2v7.8c0,1.1,0.9,2,2,2h7.8c1.1,0,2-0.9,2-2v-7.8c0-1.1-0.9-2-2-2
						H65.2z"/>
				</g>
			</g>
		</g>
		<g>
			<g>
				<g>
					<path class="st0" d="M97.7,164.3h-7.8c-2.2,0-4-1.8-4-4v-7.8c0-2.2,1.8-4,4-4h7.8c2.2,0,4,1.8,4,4v7.8
						C101.7,162.5,99.9,164.3,97.7,164.3z M89.9,150.5c-1.1,0-2,0.9-2,2v7.8c0,1.1,0.9,2,2,2h7.8c1.1,0,2-0.9,2-2v-7.8
						c0-1.1-0.9-2-2-2H89.9z"/>
				</g>
			</g>
		</g>
		<g>
			<g>
				<g>
					<path class="st0" d="M123.8,164.3H116c-2.2,0-4-1.8-4-4v-7.8c0-2.2,1.8-4,4-4h7.8c2.2,0,4,1.8,4,4v7.8
						C127.8,162.5,126,164.3,123.8,164.3z M116,150.5c-1.1,0-2,0.9-2,2v7.8c0,1.1,0.9,2,2,2h7.8c1.1,0,2-0.9,2-2v-7.8
						c0-1.1-0.9-2-2-2H116z"/>
				</g>
			</g>
		</g>
		<g>
			<g>
				<g>
					<path class="st0" d="M149.5,164.3h-7.8c-2.2,0-4-1.8-4-4v-7.8c0-2.2,1.8-4,4-4h7.8c2.2,0,4,1.8,4,4v7.8
						C153.5,162.5,151.7,164.3,149.5,164.3z M141.7,150.5c-1.1,0-2,0.9-2,2v7.8c0,1.1,0.9,2,2,2h7.8c1.1,0,2-0.9,2-2v-7.8
						c0-1.1-0.9-2-2-2H141.7z"/>
				</g>
			</g>
		</g>
	</g>
	<g>
		<g>
			<g>
				<path class="st0" d="M128,71.7c-0.5,0-1-0.2-1.4-0.6c-0.8-0.8-0.8-2,0-2.8l16.2-16.2c0.8-0.8,2-0.8,2.8,0s0.8,2,0,2.8
					l-16.2,16.2C129,71.5,128.5,71.7,128,71.7z"/>
			</g>
		</g>
	</g>
	<g>
		<g>
			<g>
				<circle class="st0" cx="128.2" cy="56.1" r="3.3"/>
			</g>
		</g>
	</g>
	<g>
		<g>
			<g>
				<circle class="st0" cx="144" cy="66" r="3.3"/>
			</g>
		</g>
	</g>
</g>
<g>
	<g>
		<path class="st0" d="M155.8,184.6H60.2c-8.4,0-15.3-6.9-15.3-15.3V41c0-8.4,6.9-15.3,15.3-15.3h95.5c8.4,0,15.3,6.9,15.3,15.3
			v128.3C171.1,177.8,164.2,184.6,155.8,184.6z M60.2,29.7c-6.2,0-11.3,5.1-11.3,11.3v128.3c0,6.2,5.1,11.3,11.3,11.3h95.5
			c6.2,0,11.3-5.1,11.3-11.3V41c0-6.2-5.1-11.3-11.3-11.3H60.2z"/>
	</g>
</g>
</svg>
