<svg id="Layer_1" data-name="Layer 1" xmlns="http://www.w3.org/2000/svg" viewBox="0 0 576 558.13">
    <defs>
        <style>.cls-1{fill:#fff;}</style>
    </defs>
    <path class="cls-1"
          d="M197.37,420.49V653.88c.12,8.9,5.85,14.47,10.45,17.12a31.4,31.4,0,0,0,15.84,4.05H329.46a13.83,13.83,0,0,0,13.86-13.84V548.94H448.66V661.22a13.89,13.89,0,0,0,13.86,13.84H568.33A31.27,31.27,0,0,0,584.14,671a20.08,20.08,0,0,0,10.49-17.12V420.49L396,238.77Z"
          transform="translate(-108 -116.94)"/>
    <path class="cls-1"
          d="M671.91,356.13,579.4,271.51V139.72a14.49,14.49,0,0,0-14.51-14.46h-35a14.48,14.48,0,0,0-14.49,14.46V213l-94.3-86.29a37.19,37.19,0,0,0-50.29,0L120.1,356.13a37.25,37.25,0,0,0,50.29,55L396,204.66,621.62,411.09a37.25,37.25,0,1,0,50.29-55Z"
          transform="translate(-108 -116.94)"/>
</svg>