<svg version="1.1" id="Layer_1" xmlns="http://www.w3.org/2000/svg" viewBox="0 0 216 216">
<style type="text/css">
	.st0{fill:#8f70b2;}
</style>
<path class="st0" d="M138.3,66.6c-0.7,0-1.3,0-2,0.1c-7.4-18.5-25.5-31.5-46.6-31.5c-27.7,0-50.2,22.5-50.2,50.2
	s22.5,50.2,50.2,50.2c6.8,0,13.3-1.4,19.3-3.9c7.2,8.1,17.6,13.2,29.3,13.2c21.6,0,39.1-17.6,39.1-39.1S159.9,66.6,138.3,66.6z
	 M138.3,141.6c-10.3,0-19.6-4.4-26.1-11.4c-0.4-0.4-0.8-0.8-1.1-1.3c-0.4-0.4-0.7-0.9-1.1-1.3c-4.7-6.1-7.5-13.7-7.5-21.9
	c0-18.4,13.9-33.5,31.7-35.6c0.6-0.1,1.1-0.1,1.7-0.2c0.6,0,1.1-0.1,1.7-0.1c0.3,0,0.5,0,0.8,0c19.8,0,35.9,16.1,35.9,35.9
	S158.1,141.6,138.3,141.6z M42.8,85.4c0-25.9,21-46.9,46.9-46.9c19.4,0,36,11.8,43.2,28.6c-19,2.6-33.8,19-33.8,38.8
	c0,8.7,2.9,16.8,7.7,23.3c-5.3,2.1-11.1,3.2-17.1,3.2C63.9,132.3,42.8,111.2,42.8,85.4z"/>
<g>
	<rect x="87.4" y="79" class="st0" width="3.3" height="93.9"/>
</g>
<g>
	<rect x="136.7" y="104.1" class="st0" width="3.3" height="68.8"/>
</g>
<g>
	<rect x="47.4" y="171.6" class="st0" width="130.4" height="3.3"/>
</g>
<g>
	<polygon class="st0" points="138.3,119.6 124.1,105.3 126.4,103 138.4,115 151.3,102.9 153.6,105.3 	"/>
</g>
<g>
	<polygon class="st0" points="138.4,136 116,118.6 118.1,116 138.3,131.8 157.2,116 159.3,118.6 	"/>
</g>
<g>
	<polygon class="st0" points="89.7,105.8 75.5,91.5 77.9,89.1 89.8,101.2 102.7,89.1 105,91.5 	"/>
</g>
<g>
	<polygon class="st0" points="89.8,122.2 59,98.2 61,95.6 89.7,118 100.1,109.3 102.2,111.8 	"/>
</g>
</svg>
