<svg id="Layer_1" data-name="Layer 1" xmlns="http://www.w3.org/2000/svg" viewBox="0 0 119.89 152">
    <defs>
        <style>.cls-1{fill:#8f70b2;}</style>
    </defs>
    <title>security</title>
    <path class="cls-1"
          d="M107.65,29.95A31.88,31.88,0,0,1,139.49,61.8V73.07h7.56a16.29,16.29,0,0,1,16.24,16.24v68.5a16.29,16.29,0,0,1-16.24,16.24H67.53A16.29,16.29,0,0,1,51.3,157.82V89.31A16.29,16.29,0,0,1,67.53,73.07H75.8V61.8a31.88,31.88,0,0,1,31.85-31.85M84.37,73.07h46.56V61.8a23.28,23.28,0,0,0-46.56,0V73.07M107.65,26a35.84,35.84,0,0,0-35.8,35.8v7.33H67.53A20.21,20.21,0,0,0,47.35,89.31v68.5A20.21,20.21,0,0,0,67.53,178h79.52a20.21,20.21,0,0,0,20.18-20.18V89.31a20.21,20.21,0,0,0-20.18-20.18h-3.61V61.8A35.84,35.84,0,0,0,107.65,26ZM88.31,69.13V61.8a19.33,19.33,0,0,1,38.66,0v7.33Z"
          transform="translate(-47.35 -26)"/>
    <path class="cls-1"
          d="M123.3,150.18H91.45l5.4-23.91a15.36,15.36,0,1,1,20,.81Zm-26.91-3.95h21.7l-5.83-20.82,1.22-.79a11.42,11.42,0,1,0-13.23-.63l1,.77Z"
          transform="translate(-47.35 -26)"/>
</svg>