<svg id="Layer_1" data-name="Layer 1" xmlns="http://www.w3.org/2000/svg" viewBox="0 0 157.13 122.08">
    <defs>
        <style>.cls-1{fill:#8f70b2;}</style>
    </defs>
    <title>social</title>
    <path class="cls-1"
          d="M106.58,88.51a22.6,22.6,0,1,1,23-22.6A22.82,22.82,0,0,1,106.58,88.51Zm0-43.27a20.68,20.68,0,1,0,21,20.68A20.88,20.88,0,0,0,106.58,45.23Z"
          transform="translate(-29.93 -42.55)"/>
    <path class="cls-1"
          d="M106.58,89.27a23.36,23.36,0,1,1,23.82-23.36A23.62,23.62,0,0,1,106.58,89.27Zm0-45.2a21.84,21.84,0,1,0,22.17,21.84A22,22,0,0,0,106.58,44.07Zm0,43.27a21.44,21.44,0,1,1,21.86-21.44A21.67,21.67,0,0,1,106.58,87.34Zm0-41.35a19.92,19.92,0,1,0,20.22,19.91A20.09,20.09,0,0,0,106.58,46Z"
          transform="translate(-29.93 -42.55)"/>
    <path class="cls-1"
          d="M31.62,147.94V111.59c0-2.49,12.81-13.2,22.34-15a40.83,40.83,0,0,1,15.64,0c4.7,1,10.52,4.09,15.09,7.52l1.09-.65c-4.91-3.82-11.28-7.2-16.05-8.16a41.66,41.66,0,0,0-15.88,0C44.77,97,30.71,107.57,30.71,111.59v37.66H70.29v-1.31Z"
          transform="translate(-29.93 -42.55)"/>
    <path class="cls-1"
          d="M71.06,150.28H29.93V111.59c0-4.93,14.68-15.6,23.8-17.29a42.34,42.34,0,0,1,16.1,0c4.66.94,11.07,4.2,16.33,8.29l1.32,1-2.84,1.67-.34-.26c-4.94-3.72-10.62-6.55-14.82-7.4a40.34,40.34,0,0,0-15.42,0c-9.24,1.71-21.19,11.88-21.68,14v35.23H71.06Z"
          transform="translate(-29.93 -42.55)"/>
    <path class="cls-1"
          d="M32.53,146.63v-34.9c.89-2.4,12.38-12.12,21.55-13.81a40.39,40.39,0,0,1,15.4,0c4.69.95,9.94,3.83,14.13,6.9l1.08-.67c-4.57-3.43-10.38-6.57-15.09-7.52a40.83,40.83,0,0,0-15.64,0c-9.53,1.77-22.34,12.47-22.34,15v36.35H70.29v-1.31Z"
          transform="translate(-29.93 -42.55)"/>
    <path class="cls-1"
          d="M71.06,149H30.84V111.59c0-3.49,13.62-14.25,23-16a41.46,41.46,0,0,1,15.86,0c4.37.88,10.25,3.81,15.35,7.64l1.32,1L83.58,106l-.35-.25c-4.77-3.49-9.83-6-13.87-6.78a39.68,39.68,0,0,0-15.18,0C45.37,100.57,34.53,109.8,33.3,112V145.6H71.06Z"
          transform="translate(-29.93 -42.55)"/>
    <path class="cls-1"
          d="M186.29,114.63c0-5.79-14.57-16.06-23.5-17.87a41.69,41.69,0,0,0-15.88,0c-4.62.86-10.53,4-15.22,7.44l1.1.7c4.31-3.08,9.65-6,14.24-6.85a40.83,40.83,0,0,1,15.64,0c9.22,1.86,22.71,12.12,22.71,16.57v34.75H146.31v1.31h40Z"
          transform="translate(-29.93 -42.55)"/>
    <path class="cls-1"
          d="M187.07,151.72H145.53v-3.38h39.07V114.63c0-3.48-12.59-13.63-22.06-15.55a40.51,40.51,0,0,0-15.42,0c-3.9.73-9,3.18-14,6.74l-.35.25-.36-.23-1.09-.7-1.39-.87,1.34-1c5.39-3.93,11.17-6.76,15.49-7.56a42.29,42.29,0,0,1,16.1,0c8.66,1.75,24.16,11.94,24.16,18.89Z"
          transform="translate(-29.93 -42.55)"/>
    <path class="cls-1"
          d="M147.14,99.36a40.39,40.39,0,0,1,15.4,0c9.74,2,21.93,12.3,21.93,15.28v33.44H146.31v1.31h39.07V114.63c0-4.46-13.5-14.71-22.71-16.57a40.83,40.83,0,0,0-15.64,0c-4.58.85-9.93,3.77-14.24,6.85l1,.7C137.86,102.81,142.76,100.17,147.14,99.36Z"
          transform="translate(-29.93 -42.55)"/>
    <path class="cls-1"
          d="M186.15,150.42H145.53V147H183.7V114.63c-.22-2.14-11.33-12.25-21.27-14.26a39.73,39.73,0,0,0-15.17,0c-5,.93-10.33,4.25-13.06,6.14l-.35.25-.35-.24-1-.69-1.36-.89,1.34-1c3-2.15,8.92-5.93,14.5-7a41.73,41.73,0,0,1,15.86,0c8.67,1.75,23.37,12,23.37,17.6Z"
          transform="translate(-29.93 -42.55)"/>
    <path class="cls-1"
          d="M98.51,99.54a49.92,49.92,0,0,1,19.12,0,43.57,43.57,0,0,1,12.95,5.5l1.11-.83a44.27,44.27,0,0,0-13.93-6,50.8,50.8,0,0,0-19.36,0c-3.74.69-8.28,2.71-12.62,5.24l1,.79A39.25,39.25,0,0,1,98.51,99.54Z"
          transform="translate(-29.93 -42.55)"/>
    <path class="cls-1"
          d="M130.62,106.2l-.36-.22a43,43,0,0,0-12.75-5.42,49.61,49.61,0,0,0-18.9,0,38.62,38.62,0,0,0-11.55,4.66l-.37.21-.34-.28-1-.77-1.32-1,1.4-.82c3.36-2,8.32-4.48,12.82-5.32a51.4,51.4,0,0,1,19.59,0,45.35,45.35,0,0,1,14.14,6l1.39.86-1.34,1-1.1.82Z"
          transform="translate(-29.93 -42.55)"/>
    <path class="cls-1" d="M145.4,162.28H71.2v-13h-.91v14.34h76v-12.9h-.91Z" transform="translate(-29.93 -42.55)"/>
    <polygon class="cls-1"
             points="117.15 122.08 39.58 122.08 39.58 105.66 42.04 105.66 42.04 118.7 114.69 118.7 114.69 107.11 117.15 107.11 117.15 122.08"/>
    <path class="cls-1"
          d="M84.61,105.57l-1-.76c-7.21,4.57-13.32,10.24-13.32,13v28.79h.91V117.84C71.2,115.95,77.24,110.18,84.61,105.57Z"
          transform="translate(-29.93 -42.55)"/>
    <path class="cls-1"
          d="M72,147.67H69.51V117.84c0-4.14,8.65-10.73,13.76-14l.36-.23.35.25,1,.77,1.28,1-1.34.84c-8,5-12.76,10.15-13,11.38Z"
          transform="translate(-29.93 -42.55)"/>
    <path class="cls-1" d="M71.2,147.94h-.91v1.31h.91Z" transform="translate(-29.93 -42.55)"/>
    <rect class="cls-1" x="39.58" y="104.36" width="2.46" height="3.38"/>
    <path class="cls-1" d="M85.68,104.91l1.08-.63-1-.79-1.09.65Z" transform="translate(-29.93 -42.55)"/>
    <path class="cls-1" d="M85.63,106.07l-.35-.27-1-.76L83,104l2.86-1.7.34.26,1,.8,1.27,1-1.37.79-1.06.63Z"
          transform="translate(-29.93 -42.55)"/>
    <path class="cls-1" d="M70.29,146.63v1.31h.91v-1.31Z" transform="translate(-29.93 -42.55)"/>
    <rect class="cls-1" x="39.58" y="103.05" width="2.46" height="3.38"/>
    <path class="cls-1" d="M84.61,105.57l1.07-.66-1-.77-1.08.67Z" transform="translate(-29.93 -42.55)"/>
    <path class="cls-1" d="M84.57,106.73l-.35-.27-1-.74-1.33-1L84.72,103l.34.26,1,.78,1.28,1Z"
          transform="translate(-29.93 -42.55)"/>
    <path class="cls-1"
          d="M145.4,119.8v28.27h.91V119.8c0-3.5-5.44-9.39-12.48-14.2l-1.1.79C139.71,111,145.4,116.6,145.4,119.8Z"
          transform="translate(-29.93 -42.55)"/>
    <path class="cls-1"
          d="M147.08,149.11h-2.46V119.8c0-2.19-4.58-7.46-12.24-12.48l-1.35-.88,1.32-1,1.12-.8.35-.25.35.24c5.95,4.06,12.9,10.46,12.9,15.12Z"
          transform="translate(-29.93 -42.55)"/>
    <path class="cls-1" d="M145.4,149.38v1.31h.91v-1.31Z" transform="translate(-29.93 -42.55)"/>
    <rect class="cls-1" x="114.69" y="105.8" width="2.46" height="3.38"/>
    <path class="cls-1" d="M131.68,105.72l1.11-.81-1.1-.7-1.11.83Z" transform="translate(-29.93 -42.55)"/>
    <path class="cls-1" d="M131.71,106.88l-2.83-1.73,1.31-1,1.12-.84.34-.25.36.22,1.11.71,1.36.89-1.34,1-1.09.8Z"
          transform="translate(-29.93 -42.55)"/>
    <path class="cls-1" d="M145.4,148.07v1.31h.91v-1.31Z" transform="translate(-29.93 -42.55)"/>
    <rect class="cls-1" x="114.69" y="104.49" width="2.46" height="3.38"/>
    <path class="cls-1" d="M132.73,106.39l1.1-.79-1-.7-1.11.81Z" transform="translate(-29.93 -42.55)"/>
    <path class="cls-1" d="M132.75,107.55,130,105.79l1.32-1,1.12-.82.35-.25.35.23,1.06.7,1.34.91-1.33.93-1.09.77Z"
          transform="translate(-29.93 -42.55)"/>
    <path class="cls-1" d="M144.49,161H72.11V149.25H71.2v13h74.2v-11.6h-.91Z" transform="translate(-29.93 -42.55)"/>
    <polygon class="cls-1"
             points="116.24 120.77 40.49 120.77 40.49 105.66 42.95 105.66 42.95 117.4 113.78 117.4 113.78 107.11 116.24 107.11 116.24 120.77"/>
    <path class="cls-1"
          d="M98.63,100.84a49.45,49.45,0,0,1,18.88,0,41.7,41.7,0,0,1,12,5l1-.81a43.57,43.57,0,0,0-12.95-5.5,49.92,49.92,0,0,0-19.12,0,39.25,39.25,0,0,0-11.75,4.73l1,.83A37.3,37.3,0,0,1,98.63,100.84Z"
          transform="translate(-29.93 -42.55)"/>
    <path class="cls-1"
          d="M129.61,107l-.37-.22a41.16,41.16,0,0,0-11.85-4.94,48.77,48.77,0,0,0-18.65,0h0A36.27,36.27,0,0,0,88,106.06l-.38.21-.34-.3-1-.81-1.27-1,1.37-.78a39.81,39.81,0,0,1,12-4.81,50.72,50.72,0,0,1,19.34,0,44.25,44.25,0,0,1,13.15,5.58l1.38.83-1.31,1-1,.8Z"
          transform="translate(-29.93 -42.55)"/>
    <path class="cls-1"
          d="M85.6,106.35l-1-.78c-7.37,4.62-13.41,10.38-13.41,12.28v28.79h.91V117.94C72.64,116.17,78.49,110.69,85.6,106.35Z"
          transform="translate(-29.93 -42.55)"/>
    <path class="cls-1"
          d="M72.88,147.67H70.42V117.84c0-3.13,8.1-9.61,13.86-13.21l.37-.23.35.27,1,.8,1.24,1-1.33.81c-7.07,4.33-12.35,9.41-13,10.89Z"
          transform="translate(-29.93 -42.55)"/>
    <path class="cls-1" d="M72.11,147.94H71.2v1.31h.91Z" transform="translate(-29.93 -42.55)"/>
    <rect class="cls-1" x="40.49" y="104.36" width="2.46" height="3.38"/>
    <path class="cls-1" d="M87.73,105.1l-1-.83-1.08.63,1,.8Z" transform="translate(-29.93 -42.55)"/>
    <path class="cls-1"
          d="M86.6,106.88l-.35-.29-1-.79-1.28-1,1.36-.82,1.09-.64.37-.21.34.28q.51.42,1,.85l1.22,1.08-1.35.74-1.05.6Z"
          transform="translate(-29.93 -42.55)"/>
    <path class="cls-1" d="M72.11,146.63H71.2v1.31h.91Z" transform="translate(-29.93 -42.55)"/>
    <rect class="cls-1" x="40.49" y="103.05" width="2.46" height="3.38"/>
    <path class="cls-1" d="M85.6,106.35l1.07-.64-1-.8-1.07.66Z" transform="translate(-29.93 -42.55)"/>
    <path class="cls-1" d="M85.55,107.52l-.35-.29-1-.77-1.29-1,2.8-1.73.34.27c.34.27.68.54,1,.82l1.23,1Z"
          transform="translate(-29.93 -42.55)"/>
    <path class="cls-1"
          d="M135.32,109.64c6.72,5,9.17,8.81,9.17,10.16v28.27h.91V119.8c0-3.2-5.69-8.84-12.67-13.41l-1,.77C132.92,107.94,134.13,108.76,135.32,109.64Z"
          transform="translate(-29.93 -42.55)"/>
    <path class="cls-1"
          d="M146.17,149.11h-2.46V119.8c0-.57-1.72-4-8.77-9.25-1.18-.87-2.38-1.68-3.59-2.46l-1.33-.85,1.28-1,1-.78.35-.26.36.23c6,4,13.1,10.1,13.1,14.34Z"
          transform="translate(-29.93 -42.55)"/>
    <path class="cls-1" d="M144.49,150.69h.91v-1.31h-.91Z" transform="translate(-29.93 -42.55)"/>
    <rect class="cls-1" x="113.78" y="105.8" width="2.46" height="3.38"/>
    <path class="cls-1" d="M130.66,106.5l1-.78-1.11-.68-1,.81C129.92,106.07,130.29,106.27,130.66,106.5Z"
          transform="translate(-29.93 -42.55)"/>
    <path class="cls-1" d="M130.71,107.66,127.88,106l1.27-1,1-.82.34-.26,2.84,1.76-1.31,1-1,.77Z"
          transform="translate(-29.93 -42.55)"/>
    <path class="cls-1" d="M144.49,148.07v1.31h.91v-1.31Z" transform="translate(-29.93 -42.55)"/>
    <rect class="cls-1" x="113.78" y="104.49" width="2.46" height="3.38"/>
    <path class="cls-1" d="M131.69,107.16l1-.77-1-.67-1,.78C131,106.71,131.35,106.94,131.69,107.16Z"
          transform="translate(-29.93 -42.55)"/>
    <path class="cls-1" d="M131.72,108.33,129,106.61l1.28-1,1-.79.35-.26,2.76,1.78-1.31,1-1,.77Z"
          transform="translate(-29.93 -42.55)"/>
    <path class="cls-1"
          d="M59.68,88.49A16.5,16.5,0,1,1,76.16,72,16.52,16.52,0,0,1,59.68,88.49Zm0-31.05A14.55,14.55,0,1,0,74.21,72,14.56,14.56,0,0,0,59.68,57.44Z"
          transform="translate(-29.93 -42.55)"/>
    <path class="cls-1"
          d="M59.68,89.27A17.28,17.28,0,1,1,77,72,17.32,17.32,0,0,1,59.68,89.27Zm0-33A15.73,15.73,0,1,0,75.34,72,15.72,15.72,0,0,0,59.68,56.26Zm0,31A15.32,15.32,0,1,1,75,72,15.36,15.36,0,0,1,59.68,87.31Zm0-29.09A13.77,13.77,0,1,0,73.38,72,13.76,13.76,0,0,0,59.68,58.22Z"
          transform="translate(-29.93 -42.55)"/>
    <path class="cls-1"
          d="M158.17,88.49A16.5,16.5,0,1,1,174.66,72,16.52,16.52,0,0,1,158.17,88.49Zm0-31.05A14.55,14.55,0,1,0,172.71,72,14.56,14.56,0,0,0,158.17,57.44Z"
          transform="translate(-29.93 -42.55)"/>
    <path class="cls-1"
          d="M158.17,89.27A17.28,17.28,0,1,1,175.49,72,17.32,17.32,0,0,1,158.17,89.27Zm0-33A15.73,15.73,0,1,0,173.84,72,15.72,15.72,0,0,0,158.17,56.26Zm0,31A15.32,15.32,0,1,1,173.53,72,15.36,15.36,0,0,1,158.17,87.31Zm0-29.09A13.77,13.77,0,1,0,171.88,72,13.76,13.76,0,0,0,158.17,58.22Z"
          transform="translate(-29.93 -42.55)"/>
</svg>