<svg id="Layer_1" data-name="Layer 1" xmlns="http://www.w3.org/2000/svg" viewBox="0 0 152.81 117.5">
    <defs>
        <style>.cls-1{fill:#8f70b2;}</style>
    </defs>
    <title>welcome</title>
    <path class="cls-1"
          d="M175.6,155.84l-32.55-8.63A95.39,95.39,0,0,1,105,154.94c-42.13,0-76.41-26.15-76.41-58.3S62.87,38.34,105,38.34s76.41,26.16,76.41,58.3c0,12.09-4.79,23.65-13.86,33.49ZM105,42.49c-39.84,0-72.25,24.29-72.25,54.15S65.16,150.79,105,150.79a91,91,0,0,0,37-7.67l.67-.3,26.68,7.08L162.86,129l.85-.89c8.86-9.25,13.55-20.14,13.55-31.52C177.25,66.78,144.84,42.49,105,42.49Z"
          transform="translate(-28.59 -38.34)"/>
    <path class="cls-1"
          d="M66.25,103.8H63.09l-3-10.61q-.19-.69-.49-2t-.35-1.82q-.12.78-.4,2t-.46,1.85L55.43,103.8H52.27L50,94.89,47.63,86h3l2.54,10.37a44.82,44.82,0,0,1,.85,4.41q.13-1,.4-2.31t.49-2.07L57.78,86h2.88l3,10.44a39,39,0,0,1,.9,4.33,31.77,31.77,0,0,1,.88-4.43L67.94,86h2.95Z"
          transform="translate(-28.59 -38.34)"/>
    <path class="cls-1"
          d="M79,104a6.51,6.51,0,0,1-4.91-1.83,7,7,0,0,1-1.77-5A7.63,7.63,0,0,1,73.94,92a5.68,5.68,0,0,1,4.52-1.89,5.55,5.55,0,0,1,4.21,1.62,6.19,6.19,0,0,1,1.55,4.45v1.55h-9a4.42,4.42,0,0,0,1.06,3,3.69,3.69,0,0,0,2.81,1.05,10.38,10.38,0,0,0,2.22-.23,11.64,11.64,0,0,0,2.21-.75v2.32a8.78,8.78,0,0,1-2.12.71A13,13,0,0,1,79,104Zm-.52-11.78a2.87,2.87,0,0,0-2.18.86,4.12,4.12,0,0,0-1,2.52H81.4a3.73,3.73,0,0,0-.8-2.53A2.75,2.75,0,0,0,78.46,92.26Z"
          transform="translate(-28.59 -38.34)"/>
    <path class="cls-1" d="M90.33,103.8H87.47V84.86h2.86Z" transform="translate(-28.59 -38.34)"/>
    <path class="cls-1"
          d="M99.84,104a5.89,5.89,0,0,1-4.64-1.78,7.45,7.45,0,0,1-1.59-5.12,7.49,7.49,0,0,1,1.66-5.22,6.16,6.16,0,0,1,4.8-1.83,9,9,0,0,1,3.83.79l-.86,2.3a8.66,8.66,0,0,0-3-.71q-3.49,0-3.49,4.64a5.55,5.55,0,0,0,.87,3.4,3,3,0,0,0,2.55,1.14,7.32,7.32,0,0,0,3.62-.95v2.5a5.65,5.65,0,0,1-1.64.65A9.82,9.82,0,0,1,99.84,104Z"
          transform="translate(-28.59 -38.34)"/>
    <path class="cls-1"
          d="M118.7,97a7.35,7.35,0,0,1-1.69,5.15A6.06,6.06,0,0,1,112.3,104a6.45,6.45,0,0,1-3.34-.85,5.62,5.62,0,0,1-2.23-2.45A8.33,8.33,0,0,1,106,97a7.3,7.3,0,0,1,1.68-5.11,6.09,6.09,0,0,1,4.73-1.84A5.93,5.93,0,0,1,117,92,7.26,7.26,0,0,1,118.7,97Zm-9.8,0q0,4.66,3.44,4.66T115.75,97q0-4.61-3.43-4.61a2.93,2.93,0,0,0-2.61,1.19A6.07,6.07,0,0,0,108.9,97Z"
          transform="translate(-28.59 -38.34)"/>
    <path class="cls-1"
          d="M133.33,103.8h-2.87V95.5a3.76,3.76,0,0,0-.58-2.31,2.16,2.16,0,0,0-1.83-.76,2.78,2.78,0,0,0-2.43,1.08,6.32,6.32,0,0,0-.77,3.58v6.71H122V90.34h2.24l.4,1.76h.15a3.73,3.73,0,0,1,1.62-1.48,5.24,5.24,0,0,1,2.34-.52q3.1,0,4.11,2.12H133a4.1,4.1,0,0,1,1.68-1.56,5.33,5.33,0,0,1,2.48-.56,4.52,4.52,0,0,1,3.51,1.22,5.39,5.39,0,0,1,1.1,3.71v8.78H139V95.5a3.73,3.73,0,0,0-.59-2.31,2.17,2.17,0,0,0-1.83-.76,2.84,2.84,0,0,0-2.44,1,5.36,5.36,0,0,0-.77,3.2Z"
          transform="translate(-28.59 -38.34)"/>
    <path class="cls-1"
          d="M151.7,104a6.51,6.51,0,0,1-4.91-1.83,7,7,0,0,1-1.77-5A7.63,7.63,0,0,1,146.66,92a5.68,5.68,0,0,1,4.52-1.89,5.55,5.55,0,0,1,4.21,1.62,6.19,6.19,0,0,1,1.55,4.45v1.55h-9a4.42,4.42,0,0,0,1.06,3,3.69,3.69,0,0,0,2.81,1.05,10.38,10.38,0,0,0,2.22-.23,11.64,11.64,0,0,0,2.21-.75v2.32a8.78,8.78,0,0,1-2.12.71A13,13,0,0,1,151.7,104Zm-.52-11.78a2.87,2.87,0,0,0-2.18.86,4.12,4.12,0,0,0-1,2.52h6.11a3.73,3.73,0,0,0-.8-2.53A2.75,2.75,0,0,0,151.17,92.26Z"
          transform="translate(-28.59 -38.34)"/>
    <path class="cls-1"
          d="M159.75,102.28a1.65,1.65,0,0,1,1.83-1.84,1.74,1.74,0,0,1,1.33.49,1.88,1.88,0,0,1,.46,1.35,1.93,1.93,0,0,1-.47,1.37,1.71,1.71,0,0,1-1.32.51,1.81,1.81,0,0,1-1.34-.49A1.89,1.89,0,0,1,159.75,102.28Zm2.9-3.88h-2.12L159.9,86h3.37Z"
          transform="translate(-28.59 -38.34)"/>
</svg>