<svg id="Layer_1" data-name="Layer 1" xmlns="http://www.w3.org/2000/svg" viewBox="0 0 186.8 96.82">
    <defs>
        <style>.cls-1{fill:#8f70b2;}</style>
    </defs>
    <title>transportation</title>
    <polygon class="cls-1"
             points="140.8 43.55 140.8 4.02 136.72 4.02 136.72 43.33 107.66 41.73 107.66 4.02 103.58 4.02 103.58 41.5 72.61 39.8 72.61 2.04 68.53 2.04 68.53 39.57 31.08 37.51 31.08 2.04 27 2.04 27 37.28 2.15 35.91 1.93 39.98 184.65 50.05 184.88 45.98 140.8 43.55"/>
    <path class="cls-1"
          d="M199.81,100.84,184.86,65.2a14.83,14.83,0,0,0-13.71-9.12H25.75A11.57,11.57,0,0,0,14.2,67.63v55.58a9.63,9.63,0,0,0,9.62,9.62H36.54a18.29,18.29,0,0,1,.84-4.08H23.81a5.55,5.55,0,0,1-5.54-5.54V67.63a7.48,7.48,0,0,1,7.48-7.48h145.4a10.76,10.76,0,0,1,10,6.62L196,102.42a11.21,11.21,0,0,1,.87,4.34v14.41a7.59,7.59,0,0,1-7.58,7.58H172.5a18.29,18.29,0,0,1,.84,4.08h16A11.67,11.67,0,0,0,201,121.17V106.76A15.22,15.22,0,0,0,199.81,100.84Z"
          transform="translate(-14.2 -56.08)"/>
    <path class="cls-1" d="M72.4,128.75a18.29,18.29,0,0,1,.84,4.08h63.41a18.29,18.29,0,0,1,.84-4.08Z"
          transform="translate(-14.2 -56.08)"/>
    <path class="cls-1"
          d="M155,116a18.46,18.46,0,0,0-17.51,12.72h4.35a14.34,14.34,0,0,1,26.32,0h4.35A18.46,18.46,0,0,0,155,116Z"
          transform="translate(-14.2 -56.08)"/>
    <path class="cls-1"
          d="M169.34,134.46a14.35,14.35,0,1,1-28.61-1.64h-4.1c0,.54-.08,1.08-.08,1.64a18.43,18.43,0,1,0,36.86,0c0-.55,0-1.1-.08-1.64h-4.1A14.42,14.42,0,0,1,169.34,134.46Z"
          transform="translate(-14.2 -56.08)"/>
    <path class="cls-1" d="M168.15,128.75a14.24,14.24,0,0,1,1.09,4.08h4.1a18.29,18.29,0,0,0-.84-4.08Z"
          transform="translate(-14.2 -56.08)"/>
    <path class="cls-1" d="M141.83,128.75h-4.35a18.29,18.29,0,0,0-.84,4.08h4.1A14.24,14.24,0,0,1,141.83,128.75Z"
          transform="translate(-14.2 -56.08)"/>
    <path class="cls-1"
          d="M69.24,134.46a14.35,14.35,0,1,1-28.61-1.64h-4.1c0,.54-.08,1.08-.08,1.64a18.43,18.43,0,0,0,36.86,0c0-.55,0-1.1-.08-1.64h-4.1A14.42,14.42,0,0,1,69.24,134.46Z"
          transform="translate(-14.2 -56.08)"/>
    <path class="cls-1"
          d="M54.89,120.11A14.37,14.37,0,0,1,68,128.75H72.4a18.42,18.42,0,0,0-35,0h4.35A14.37,14.37,0,0,1,54.89,120.11Z"
          transform="translate(-14.2 -56.08)"/>
    <path class="cls-1" d="M68,128.75a14.24,14.24,0,0,1,1.09,4.08h4.1a18.29,18.29,0,0,0-.84-4.08Z"
          transform="translate(-14.2 -56.08)"/>
    <path class="cls-1" d="M41.73,128.75H37.37a18.29,18.29,0,0,0-.84,4.08h4.1A14.24,14.24,0,0,1,41.73,128.75Z"
          transform="translate(-14.2 -56.08)"/>
</svg>