<?xml version="1.0" encoding="utf-8"?>
<!-- Generator: Adobe Illustrator 21.0.2, SVG Export Plug-In . SVG Version: 6.00 Build 0)  -->
<svg version="1.1" id="Layer_1" xmlns="http://www.w3.org/2000/svg" xmlns:xlink="http://www.w3.org/1999/xlink" x="0px" y="0px"
	 viewBox="0 0 162.7 112.3" style="enable-background:new 0 0 162.7 112.3;" xml:space="preserve">
<style type="text/css">
	.st0{fill:#FFFFFF;}
</style>
<g>
	<path class="st0" d="M138.5,58.2c0,9.9,0,19.8,0,29.7c0,3.1-0.9,4-4,3.6c-13-1.6-26.1-2-39.2-1c-11,0.8-22,1.9-33,2.7
		c-13.9,1.1-27.7,1-41.6-0.5c-1.1-0.1-2.1-0.3-3.2-0.4c-1.9-0.3-2.5-1.1-2.5-3.1c0-3.5,0-7,0-10.6c0-16.6,0-33.1,0-49.7
		c0-2.9,0.9-3.7,3.9-3.4c6,0.5,12,1.1,18,1.4c11.4,0.5,22.7-0.2,34-1.3c13.8-1.3,27.6-2.8,41.4-2.4c7.9,0.2,15.7,1,23.6,1.6
		c1.9,0.1,2.6,1.2,2.6,3.3C138.5,38.1,138.5,48.2,138.5,58.2z M133.3,57.9c0-8.9,0-17.7,0-26.6c0-1.3-0.5-1.7-1.6-1.8
		c-6.9-0.4-13.8-1-20.6-1.1c-12.7-0.3-25.4,1.3-38,2.2c-9.5,0.7-19.1,1.4-28.6,1.6c-7.6,0.1-15.2-0.7-22.8-1.1
		c-1-0.1-1.5,0.1-1.5,1.3c0,17.9,0,35.9,0,53.8c0,0.9,0.2,1.3,1.2,1.4c8.1,0.8,16.2,1.4,24.3,1.1c6.2-0.2,12.4-0.4,18.5-0.8
		c11-0.8,22-1.9,33-2.6c11.5-0.8,23.1-0.5,34.6,0.8c1.6,0.2,1.6,0.2,1.6-1.4C133.3,75.7,133.3,66.8,133.3,57.9z"/>
	<path class="st0" d="M148.8,49.2c0,9.9,0,19.7,0,29.6c0,0.5,0,1,0,1.5c-0.2,1.3-1.3,2.2-2.5,2.3c-1.2,0-2.3-0.8-2.6-2
		c-0.1-0.6-0.2-1.3-0.2-2c0-18.8,0-37.6,0-56.5c0-1.2-0.2-1.6-1.5-1.8c-14-1.5-27.9-1.4-41.9-0.3c-11.3,0.9-22.5,2-33.8,2.7
		c-9.8,0.6-19.6,0.5-29.4-0.4c-2.9-0.3-5.9-0.6-8.8-0.9c-2-0.2-3-1.3-2.8-3c0.2-1.6,1.5-2.5,3.4-2.2c13.4,1.7,26.9,2,40.4,1
		c13-1,26-2.2,39-3.1c11.4-0.8,22.9-0.3,34.3,0.8c1.3,0.1,2.6,0.3,3.9,0.5c1.5,0.2,2.3,1.1,2.4,2.6c0,0.4,0,0.8,0,1.3
		C148.8,29.5,148.8,39.3,148.8,49.2z"/>
	<path class="st0" d="M71.6,42.2c-0.1-2.6,1.5-4.1,3.5-3.4c1.2,0.4,1.7,1.3,1.7,2.9c-0.1,1.2,0.2,1.8,1.5,2.2c2.8,1,4.3,3.2,4.6,6.2
		c0.2,1.7-0.8,3-2.3,3.2c-1.5,0.2-2.7-0.8-2.9-2.5c-0.1-1.4-0.8-2.1-2.1-2.3c-1.4-0.2-3-0.3-4,1c-0.8,1.1-0.5,2.4,0.8,3.1
		c2.3,1.3,4.7,2.3,7,3.7c3.2,1.9,4.4,5,3.3,8.4c-0.7,2.4-2.4,3.9-4.7,4.7c-1,0.3-1.2,0.8-1.1,1.7c0,0.3,0,0.7,0,1
		c-0.1,1.4-1.1,2.4-2.4,2.5c-1.4,0.1-2.8-0.9-2.7-2.2c0.2-2.2-0.9-3-2.6-3.9C67,67.3,66,65.1,66,62.7c0-1.5,0.9-2.6,2.3-2.7
		c1.4-0.2,2.6,0.7,2.9,2.3c0.2,1.2,0.6,2.1,1.8,2.4c1.4,0.3,2.9,0.4,4.2-0.6c1-0.8,0.9-2.5-0.2-3.1c-1.4-0.9-3-1.6-4.5-2.4
		c-1-0.5-1.9-1-2.8-1.5c-2.6-1.5-3.8-3.8-3.5-6.8c0.2-2.9,1.7-4.9,4.4-6C71.4,43.6,71.8,43.1,71.6,42.2z"/>
</g>
</svg>
