<svg id="Layer_1" data-name="Layer 1" xmlns="http://www.w3.org/2000/svg" viewBox="0 0 360 360">
    <defs>
        <style>.cls-1{fill:#fff;}</style>
    </defs>
    <path class="cls-1"
          d="M337.05,576H274.95l-9.28-55.62a130.51,130.51,0,0,1-19.08-7.91l-45.92,32.78-43.91-43.91,32.8-45.93a129.88,129.88,0,0,1-7.9-19.08L126,427v-62.1l55.65-9.29a130.92,130.92,0,0,1,7.91-19.07l-32.8-45.93,43.91-43.91,45.92,32.79a130.56,130.56,0,0,1,19.09-7.9L274.95,216h62.11l9.28,55.62a130.42,130.42,0,0,1,19.08,7.91l45.92-32.78,43.91,43.91-32.8,45.93a129.66,129.66,0,0,1,7.91,19.08L486,364.95v62.11l-55.65,9.25a130.28,130.28,0,0,1-7.91,19.07l32.8,45.93-43.91,43.91-45.92-32.77a130,130,0,0,1-19.08,7.91Zm-49.26-15.16h36.42l8.74-52.37,4.63-1.3a115.09,115.09,0,0,0,24.72-10.24l4.19-2.34,43.2,30.83,25.75-25.76-30.86-43.2,2.34-4.19a115.55,115.55,0,0,0,10.25-24.74l1.31-4.63,52.36-8.7V377.78l-52.36-8.73-1.31-4.62a114.2,114.2,0,0,0-10.24-24.72l-2.35-4.19,30.86-43.22-25.75-25.76-43.2,30.84-4.19-2.33a115.21,115.21,0,0,0-24.73-10.26l-4.63-1.3-8.74-52.34H287.79l-8.73,52.36-4.62,1.3a114.91,114.91,0,0,0-24.73,10.24l-4.19,2.34L202.3,266.55,176.55,292.3l30.86,43.2-2.33,4.2a115.09,115.09,0,0,0-10.25,24.73l-1.31,4.62-52.36,8.73v36.43l52.36,8.73,1.31,4.62a114.33,114.33,0,0,0,10.24,24.73l2.35,4.19L176.55,499.7l25.75,25.76,43.2-30.84,4.19,2.33a114.85,114.85,0,0,0,24.73,10.25l4.63,1.31Z"
          transform="translate(-126 -216)"/>
    <path class="cls-1"
          d="M306,449.06A53.06,53.06,0,1,1,359.05,396,53.12,53.12,0,0,1,306,449.06Zm0-98.53A45.48,45.48,0,1,0,351.47,396,45.53,45.53,0,0,0,306,350.52Z"
          transform="translate(-126 -216)"/>
</svg>