<svg id="Layer_1" data-name="Layer 1" xmlns="http://www.w3.org/2000/svg" viewBox="0 0 140 140.7">
    <defs>
        <style>.cls-1{fill:#ffffff;}</style>
    </defs>
    <title>internet</title>
    <path class="cls-1"
          d="M108.16,172.91a70,70,0,1,1,70-70A70.08,70.08,0,0,1,108.16,172.91Zm0-135.73a65.73,65.73,0,1,0,65.73,65.73A65.8,65.8,0,0,0,108.16,37.18Z"
          transform="translate(-38.16 -32.9)"/>
    <rect class="cls-1" x="67.87" y="2.14" width="4.27" height="135.73"/>
    <path class="cls-1"
          d="M111.18,172.71l-1.77-3.89c29.88-13.62,38.73-47.68,37.23-72.71-1.76-29.27-16.28-52.45-37-59L110.94,33c22.42,7.13,38.1,31.8,40,62.85C153,130.6,137.4,160.77,111.18,172.71Z"
          transform="translate(-38.16 -32.9)"/>
    <path class="cls-1"
          d="M105.4,173.6C86.17,166.51,73,143.07,70.92,112.44,68.06,69.38,87.57,43.26,105.15,34l2,3.78c-16.45,8.69-34.68,33.39-32,74.4,1.89,28.49,14.34,51,31.7,57.43Z"
          transform="translate(-38.16 -32.9)"/>
    <rect class="cls-1" x="2.14" y="67.87" width="135.73" height="4.27"/>
    <path class="cls-1"
          d="M106.94,71.2C81.3,71.2,61,54,60.7,53.74l2.8-3.23A79.41,79.41,0,0,0,90.95,64.76c21.18,5.92,40.17.35,56.46-16.57l3.08,3C135.94,66.26,120.67,71.2,106.94,71.2Z"
          transform="translate(-38.16 -32.9)"/>
    <path class="cls-1"
          d="M68.3,157.9l-2.85-3.18c41.61-37.22,89.07-2.59,89.55-2.23l-2.55,3.43C150.62,154.55,107.28,123,68.3,157.9Z"
          transform="translate(-38.16 -32.9)"/>
</svg>