<svg id="Layer_1" data-name="Layer 1" xmlns="http://www.w3.org/2000/svg" viewBox="0 0 214.35 214.35">
    <defs>
        <style>.cls-1{fill:#ffffff;}</style>
    </defs>
    <title>lwv_icon_advertisingserv</title>
    <path class="cls-1"
          d="M106.79,183.85A19.86,19.86,0,1,1,126.65,164,19.88,19.88,0,0,1,106.79,183.85Zm0-34.25A14.39,14.39,0,1,0,121.18,164,14.41,14.41,0,0,0,106.79,149.59Z"/>
    <path class="cls-1"
          d="M140.1,136.38a2.72,2.72,0,0,1-1.93-.8,44.48,44.48,0,0,0-62.82,0,2.73,2.73,0,0,1-3.87-3.87,50,50,0,0,1,70.55,0,2.73,2.73,0,0,1-1.93,4.67Z"/>
    <path class="cls-1"
          d="M161.13,116.23a2.72,2.72,0,0,1-1.93-.8,73.62,73.62,0,0,0-104,0,2.73,2.73,0,1,1-3.87-3.87,79.09,79.09,0,0,1,111.73,0,2.73,2.73,0,0,1-1.93,4.67Z"/>
    <path class="cls-1"
          d="M179.44,97a2.72,2.72,0,0,1-1.93-.8C138.35,57.08,74.76,57,35.75,96a2.73,2.73,0,1,1-3.87-3.87C73,51,140.09,51.08,181.38,92.37A2.73,2.73,0,0,1,179.44,97Z"/>
    <path class="cls-1"
          d="M193.74,73.61a2.72,2.72,0,0,1-1.93-.8c-46.75-46.75-122.69-46.89-169.27-.3a2.73,2.73,0,0,1-3.87-3.87c48.72-48.72,128.13-48.58,177,.3a2.73,2.73,0,0,1-1.93,4.67Z"/>
</svg>