<svg id="Layer_1" data-name="Layer 1" xmlns="http://www.w3.org/2000/svg" viewBox="0 0 108.78 108.7">
    <defs>
        <style>.cls-1{fill:#fff;}</style>
    </defs>
    <title>contacticon</title>
    <path class="cls-1" d="M180.68,114.82l6.7,6.94-69.6,69.93-6.9-6.84Z" transform="translate(-91.1 -89.65)"/>
    <path class="cls-1" d="M167.75,101.9l6.87,6.8-69.79,69.93-6.69-6.84Z" transform="translate(-91.1 -89.65)"/>
    <path class="cls-1"
          d="M191,118.5,171.35,98.7c2.55-2.64,5.1-5.48,7.87-8.07a4.13,4.13,0,0,1,5.65.31q6.94,6.82,13.77,13.76a4.33,4.33,0,0,1,0,6C196.2,113.36,193.6,115.87,191,118.5Z"
          transform="translate(-91.1 -89.65)"/>
    <path class="cls-1" d="M91.1,198.35l4.47-22L113,193.9Z" transform="translate(-91.1 -89.65)"/>
</svg>