<svg id="Layer_1" data-name="Layer 1" xmlns="http://www.w3.org/2000/svg" viewBox="0 0 27.03 23.09">
    <defs>
        <style>.cls-1{fill:#ffffff;}</style>
    </defs>
    <path class="cls-1"
          d="M557.91,257.58h-2.59a2.6,2.6,0,0,0-4.7,0H542a2.6,2.6,0,0,0-4.7,0h-2.59c-1,0-1.89.6-1.89,1.34s.85,1.34,1.89,1.34h2.86a2.6,2.6,0,0,0,4.16,0h9.21a2.6,2.6,0,0,0,4.16,0h2.86c1,0,1.89-.6,1.89-1.34S559,257.58,557.91,257.58Z"
          transform="translate(-532.78 -256.09)"/>
    <path class="cls-1"
          d="M557.65,263.77a.49.49,0,0,1,.49.48V277.7a.49.49,0,0,1-.49.48H534.93a.49.49,0,0,1-.49-.48V264.26a.49.49,0,0,1,.49-.48h22.72m0-1H534.93a1.49,1.49,0,0,0-1.49,1.48V277.7a1.49,1.49,0,0,0,1.49,1.48h22.72a1.49,1.49,0,0,0,1.49-1.48V264.26a1.49,1.49,0,0,0-1.49-1.48Z"
          transform="translate(-532.78 -256.09)"/>
</svg>