<svg id="Layer_1" data-name="Layer 1" xmlns="http://www.w3.org/2000/svg" viewBox="0 0 142.96 140.77">
    <defs>
        <style>.cls-1{fill:#8f70b2;}</style>
    </defs>
    <title>resident</title>
    <polygon class="cls-1" points="2.43 55.72 0 52.3 73.56 0 142.96 52.34 140.44 55.69 73.49 5.2 2.43 55.72"/>
    <path class="cls-1"
          d="M157.69,171.64H58.13c-5.79,0-10.51-5.26-10.51-11.73V76.63l4.19-2.1V159.9c0,4.16,2.83,7.54,6.31,7.54h99.57c3.48,0,6.31-3.38,6.31-7.54V74.53l4.19,2.1V159.9C168.2,166.37,163.48,171.64,157.69,171.64Z"
          transform="translate(-36.52 -30.86)"/>
    <path class="cls-1" d="M128.27,171.64H86.64V103.21h41.64Zm-37.44-4.19h33.25v-60H90.83Z"
          transform="translate(-36.52 -30.86)"/>
    <circle class="cls-1" cx="77.66" cy="108.86" r="4.51"/>
    <polygon class="cls-1"
             points="22.44 41.47 18.25 41.47 18.25 6.58 43.47 6.58 43.47 24.61 39.28 24.61 39.28 10.77 22.44 10.77 22.44 41.47"/>
</svg>