<svg id="Layer_1" data-name="Layer 1" xmlns="http://www.w3.org/2000/svg" viewBox="0 0 214.3 214.3">
<style type="text/css">
	.st0{fill:#ffffff;}
</style>
<g>
	<path class="st0" d="M196.9,184.9H19.3V58.7h177.6V184.9z M23.5,180.7h169.2V62.8H23.5V180.7z"/>
</g>
<g>
	<path class="st0" d="M152.1,167.4H32.7V72.1h119.4V167.4z M36.9,163.2h111v-87h-111V163.2z"/>
</g>
<g>
	<path class="st0" d="M173.4,113.5c-4.8,0-8.7-3.9-8.7-8.7c0-4.8,3.9-8.7,8.7-8.7c4.8,0,8.7,3.9,8.7,8.7
		C182.1,109.6,178.2,113.5,173.4,113.5z M173.4,100.3c-2.5,0-4.5,2-4.5,4.5c0,2.5,2,4.5,4.5,4.5s4.5-2,4.5-4.5
		C177.9,102.3,175.9,100.3,173.4,100.3z"/>
</g>
<g>
	<path class="st0" d="M173.4,144.2c-4.8,0-8.7-3.9-8.7-8.7c0-4.8,3.9-8.7,8.7-8.7c4.8,0,8.7,3.9,8.7,8.7
		C182.1,140.3,178.2,144.2,173.4,144.2z M173.4,131.1c-2.5,0-4.5,2-4.5,4.5c0,2.5,2,4.5,4.5,4.5s4.5-2,4.5-4.5
		C177.9,133.1,175.9,131.1,173.4,131.1z"/>
</g>
<g>
	<path class="st0" d="M108.1,62.8c-0.6,0-1.1-0.2-1.5-0.6l-28-28c-0.8-0.8-0.8-2.1,0-3s2.1-0.8,3,0l26.5,26.5l46.6-46.6
		c0.8-0.8,2.1-0.8,3,0c0.8,0.8,0.8,2.1,0,3l-48.1,48.1C109.2,62.6,108.7,62.8,108.1,62.8z"/>
</g>
<g>
	<g>
		<path class="st0" d="M62.3,135.6l-10.1-31h4.3l4.8,15.2c1.3,4.2,2.5,7.9,3.3,11.6h0.1c0.9-3.6,2.2-7.5,3.5-11.5l5.2-15.3h4.3
			l-11.1,31H62.3z"/>
	</g>
	<g>
		<path class="st0" d="M88.6,108h-9.4v-3.4h22.9v3.4h-9.5v27.6h-4V108z"/>
	</g>
	<g>
		<path class="st0" d="M114.1,135.6l-10.1-31h4.3l4.8,15.2c1.3,4.2,2.5,7.9,3.3,11.6h0.1c0.9-3.6,2.2-7.5,3.5-11.5l5.2-15.3h4.3
			l-11.1,31H114.1z"/>
	</g>
</g>
</svg>
