<svg id="Layer_1" data-name="Layer 1" xmlns="http://www.w3.org/2000/svg" viewBox="0 0 214.3 214.3">
<style type="text/css">
	.st0{fill:#ffffff;}
</style>
<g>
	<path class="st0" d="M174.7,159.8L37,118.6V129H21.1V76.3H37v12l137.7-40.1V159.8z M33.4,113.3l137.7,41.2V53.5L33.4,93.6V80.4
		h-8.8v44.5h8.8V113.3z"/>
</g>
<g>
	<polygon class="st0" points="119.5,152.7 63.8,152.7 63.8,125 67.3,125 67.3,148.7 116,148.7 116,140.6 119.5,140.6 	"/>
</g>
<g>
	<rect x="158.1" y="54.7" class="st0" width="3.5" height="98.6"/>
</g>
<g>
	<path class="st0" d="M183.3,120.9l-2.5-2.8c7.1-8.5,7.7-21.1,1.4-28.2l2.4-2.9C192.3,95.6,191.8,110.8,183.3,120.9z"/>
</g>
<g>
	<path class="st0" d="M187,131.9l-2.5-2.8c12.6-15.1,13.6-37.6,2.3-50.2l2.4-2.9C201.9,90.1,200.9,115.2,187,131.9z"/>
</g>
</svg>
