<svg id="Layer_1" data-name="Layer 1" xmlns="http://www.w3.org/2000/svg" viewBox="0 0 183.19 181.5">
    <defs>
        <style>.cls-1{fill:#fff;}</style>
    </defs>
    <title>LWV_Amenities</title>
    <rect class="cls-1" x="211.77" y="294.38" width="20.43" height="72.6" rx="10.21" ry="10.21"
          transform="translate(-362.14 59.57) rotate(-45)"/>
    <path class="cls-1"
          d="M208.89,330.64h4.95a0,0,0,0,1,0,0v28a0,0,0,0,1,0,0h-4.95a6.67,6.67,0,0,1-6.67-6.67V337.31A6.67,6.67,0,0,1,208.89,330.64Z"
          transform="translate(-376.1 53.79) rotate(-45)"/>
    <rect class="cls-1" x="319.54" y="186.61" width="20.43" height="72.6" rx="10.21" ry="10.21"
          transform="translate(527.23 -46.88) rotate(135)"/>
    <path class="cls-1"
          d="M344.57,195h4.95a0,0,0,0,1,0,0v28a0,0,0,0,1,0,0h-4.95a6.67,6.67,0,0,1-6.67-6.67V201.62A6.67,6.67,0,0,1,344.57,195Z"
          transform="translate(541.19 -80.58) rotate(135)"/>
    <path class="cls-1"
          d="M253.26,317.44a64.75,64.75,0,0,1,2.38-17.39l-29.21-29.21a15.33,15.33,0,0,0-21.68,21.68l55.39,55.39a15.42,15.42,0,0,0,1.43,1.25A64.52,64.52,0,0,1,253.26,317.44Z"
          transform="translate(-193.33 -194.26)"/>
    <path class="cls-1" d="M294.58,257l-9.34-9.34-38.42,38.42,10.06,10.06A65.26,65.26,0,0,1,294.58,257Z"
          transform="translate(-193.33 -194.26)"/>
    <path class="cls-1" d="M298.22,255.66a64.84,64.84,0,0,1,45.39,2l-52-52a15.33,15.33,0,0,0-21.68,21.68Z"
          transform="translate(-193.33 -194.26)"/>
    <path class="cls-1"
          d="M318.2,259.13a58.31,58.31,0,1,0,58.31,58.31A58.38,58.38,0,0,0,318.2,259.13Zm39.44,89.53-.09-.11a5.5,5.5,0,0,0-7.78-.09l0,0a5.5,5.5,0,0,0-.09,7.78c.08.09.18.15.27.23A50.2,50.2,0,0,1,309.27,367a5.5,5.5,0,0,0,2.61-4.8h0v0h0a5.5,5.5,0,0,0-5.5-5.37h-.13a5.5,5.5,0,0,0-5.37,5.62v.07a5.44,5.44,0,0,0,.71,2.53,50.31,50.31,0,1,1,64.12-64.06,5.47,5.47,0,0,0-3.53-1.28h-.07a5.5,5.5,0,0,0,0,11h.06a5.5,5.5,0,0,0,5.21-3.75,50.28,50.28,0,0,1-9.74,41.81Z"
          transform="translate(-193.33 -194.26)"/>
    <path class="cls-1"
          d="M312.25,335.34a5.49,5.49,0,0,0-7.13,3.1l0,.06a5.5,5.5,0,0,0,10.24,4v-.05A5.5,5.5,0,0,0,312.25,335.34Z"
          transform="translate(-193.33 -194.26)"/>
    <path class="cls-1" d="M326.15,325.8l0,0h0a5.5,5.5,0,1,0-7.87-7.69l0,0a5.5,5.5,0,0,0,7.87,7.68Z"
          transform="translate(-193.33 -194.26)"/>
    <path class="cls-1"
          d="M340.51,304a5.48,5.48,0,0,0-2.14.43l-.06,0a5.5,5.5,0,1,0,4.28,10.13h0l.05,0A5.5,5.5,0,0,0,340.51,304Z"
          transform="translate(-193.33 -194.26)"/>
    <path class="cls-1"
          d="M356.59,319.17a5.48,5.48,0,0,0-2.15.38l-.06,0a5.5,5.5,0,1,0,4,10.23h0l.05,0a5.5,5.5,0,0,0-1.89-10.62Z"
          transform="translate(-193.33 -194.26)"/>
    <path class="cls-1"
          d="M327.59,349.86a5.49,5.49,0,0,0-7.2,2.93l0,.06a5.5,5.5,0,0,0,10.14,4.27l0,0h0A5.5,5.5,0,0,0,327.59,349.86Z"
          transform="translate(-193.33 -194.26)"/>
    <path class="cls-1"
          d="M338,331.18a5.48,5.48,0,0,0-4,1.56l0,0a5.5,5.5,0,0,0,7.69,7.87l0,0h0a5.5,5.5,0,0,0-3.71-9.44Z"
          transform="translate(-193.33 -194.26)"/>
</svg>