<svg id="Layer_1" data-name="Layer 1" xmlns="http://www.w3.org/2000/svg" viewBox="0 0 360 360">
    <defs>
        <style>.cls-1{fill:#fff;}</style>
    </defs>
    <title>LWV_Calendar</title>
    <path class="cls-1"
          d="M261,272.25v-45a11.25,11.25,0,0,1,22.5,0v45a11.25,11.25,0,0,1-22.5,0ZM452.25,283.5a11.24,11.24,0,0,0,11.25-11.25v-45a11.25,11.25,0,0,0-22.5,0v45A11.24,11.24,0,0,0,452.25,283.5ZM576,486a90,90,0,1,1-90-90A90,90,0,0,1,576,486Zm-22.5,0A67.5,67.5,0,1,0,486,553.5,67.57,67.57,0,0,0,553.5,486ZM306,351H261v45h45ZM261,463.5h45v-45H261ZM328.5,396h45V351h-45Zm0,67.5h45v-45h-45Zm-90,20.26V328.5H486v45h22.5V285.74A24.55,24.55,0,0,0,484.13,261h-9.38v11.25a22.5,22.5,0,1,1-45,0V261h-135v11.25a22.5,22.5,0,1,1-45,0V261h-9.36A24.55,24.55,0,0,0,216,285.74v198a24.58,24.58,0,0,0,24.39,24.74H373.5V486H240.39A2.13,2.13,0,0,1,238.5,483.76ZM441,396V351H396v45Zm45,33.75H474.75v67.5h67.5V486A56.3,56.3,0,0,0,486,429.75Z"
          transform="translate(-216 -216)"/>
</svg>