<svg id="Layer_1" data-name="Layer 1" xmlns="http://www.w3.org/2000/svg" viewBox="0 0 279.99 200.25">
    <defs>
        <style>.cls-1{fill:#ffffff;}</style>
    </defs>
    <path class="cls-1"
          d="M752.36,354.11q20.16-20.44,40.33-40.86c6.68-6.75,13.49-13.37,20.15-20.14,3.5-3.56,7.43-5,12.19-3.06s6,5.74,6,10.49q-.07,83.48,0,167c0,4.74-1.3,8.56-6,10.46s-8.65.43-12.17-3.1Q784.1,446,755.24,417.22c-1.13-1.13-2.35-2.18-4.26-3.94,0,8.71,0,16.46,0,24.22,0,26.53-18.65,46.06-45.24,46.34q-54.73.58-109.47,0C569.65,483.54,551,464,551,437.49q0-53.48,0-107c0-26.63,18.61-46.1,45.2-46.37q54.73-.56,109.47,0c26.56.26,45.25,19.78,45.27,46.31q0,11.43,0,22.87Z"
          transform="translate(-551.01 -283.88)"/>
</svg>