<svg id="Layer_1" data-name="Layer 1" xmlns="http://www.w3.org/2000/svg" viewBox="0 0 118.09 84.78">
    <defs>
        <style>.cls-1{fill:#ffffff;}</style>
    </defs>
    <path class="cls-1" d="M165.56,56.75,103.14,81.58l13.78,4.56L101.76,133l3.16.1a15.51,15.51,0,0,0,5.85-4.47l1-1.4,2.77-3.74,3.28,3.3,1.23,1.24c3.45,3.46,7,5.27,10.42,5.38H130a12.35,12.35,0,0,0,4.39-.93l7.33-24.07,16.15,4.92-6,19.53a10.16,10.16,0,0,0,3.66,1.3,9.85,9.85,0,0,0,1.07.09c3.4.11,7.19-1.52,11.27-4.85l1.1-.9,2.94-2.39,2.55,2.8,1,1.05a14.2,14.2,0,0,0,4.92,3.63l7.34-24,15.3,5.06Z"
          transform="translate(-84.95 -56.75)"/>
    <path class="cls-1" d="M184.63,138.57a15.94,15.94,0,0,1-9.2-3.25,20.33,20.33,0,0,1-2.9-2.65l-1-1.05-1.1.9a34.18,34.18,0,0,1-3.54,2.54,18.62,18.62,0,0,1-10.38,3.2,13.8,13.8,0,0,1-1.51-.13,15.09,15.09,0,0,1-7.72-3.69A15.63,15.63,0,0,1,145,132l-1.05-1.55-1.28,1.37a19.26,19.26,0,0,1-3,2.42,18,18,0,0,1-9.59,3.21h-.69a17.54,17.54,0,0,1-10-3.85,28.88,28.88,0,0,1-3.1-2.71L115,129.62l-1,1.4a15.94,15.94,0,0,1-2.14,2.31c-2.75,2.47-7,4.92-11.77,4.84h-.22c-4.68-.15-8.89-2.85-12.44-8L85,131.85c5.12,7.44,10.86,9.19,14.86,9.31H100c6.18.11,12-3.38,15.29-7.05,4.42,4,9.11,6.14,14,6.29h.82A21.92,21.92,0,0,0,143.59,135a18.65,18.65,0,0,0,11,6.09,16.84,16.84,0,0,0,1.91.17c4.78.15,9.74-1.72,14.8-5.56a19,19,0,0,0,13.09,5.82c9.1.29,16.86-5.65,17-5.75l-1.85-2.36C199.08,133.73,192.41,138.82,184.63,138.57Z"
          transform="translate(-84.95 -56.75)"/>
</svg>