<svg id="Layer_1" data-name="Layer 1" xmlns="http://www.w3.org/2000/svg" viewBox="0 0 329.1 278.3">
<defs>
	<style>.cls-1{fill:#fff;}</style>
</defs>
<g>
	<path class="cls-1" d="M30.9,130.4c-2.1,1.8-2.3,4.9-0.5,6.9c1,1.1,2.3,1.7,3.7,1.7c1.1,0,2.3-0.4,3.2-1.2l130-111.1l124.4,111
		c2,1.8,5.1,1.6,6.9-0.4c1.8-2,1.6-5.1-0.4-6.9L167.4,13.7L30.9,130.4z"/>
	<path class="cls-1" d="M316.2,247.1h-39.1V134.1c0-2.7-2.2-4.9-4.9-4.9c-2.7,0-4.9,2.2-4.9,4.9v112.9h-66.9v-68.6h-73.7v68.6h-63V134.1
		c0-2.7-2.2-4.9-4.9-4.9c-2.7,0-4.9,2.2-4.9,4.9v112.9H14.9c-2.7,0-4.9,2.2-4.9,4.9s2.2,4.9,4.9,4.9h301.4c2.7,0,4.9-2.2,4.9-4.9
		S318.9,247.1,316.2,247.1z M136.6,247.1v-58.8h54v58.8H136.6z"/>
</g>
</svg>
