<svg id="Layer_1" data-name="Layer 1" xmlns="http://www.w3.org/2000/svg" viewBox="0 0 219.34 187.41">
    <defs>
        <style>.cls-1{fill:#ffffff;}</style>
    </defs>
    <path class="cls-1"
          d="M490.32,355.14h-21a21.1,21.1,0,0,0-38.12,0H360.82a21.09,21.09,0,0,0-38.11,0h-21c-8.48,0-15.36,4.86-15.36,10.85s6.88,10.84,15.36,10.84h23.19a21.09,21.09,0,0,0,33.76,0h74.71a21.09,21.09,0,0,0,33.75,0h23.21c8.47,0,15.35-4.86,15.35-10.84S498.79,355.14,490.32,355.14Z"
          transform="translate(-286.33 -343.09)"/>
    <path class="cls-1"
          d="M488.2,397.33H303.8a12.06,12.06,0,0,0-12.06,12.05V518.45a12.07,12.07,0,0,0,12.06,12H488.2a12.06,12.06,0,0,0,12.05-12V409.38A12.06,12.06,0,0,0,488.2,397.33Z"
          transform="translate(-286.33 -343.09)"/>
</svg>