<svg id="Layer_1" data-name="Layer 1" xmlns="http://www.w3.org/2000/svg" viewBox="0 0 288 288">
<defs>
	<style>.cls-1{fill:#fff;}</style>
</defs>
<g>
	<path class="cls-1" d="M185.9,49.7v30.2c0,2.8,2.3,5,5,5c2.8,0,5-2.3,5-5V39.7h-67.3c0.2-0.5,0.3-1.1,0.3-1.7V11.2c0-2.8-2.3-5-5-5s-5,2.3-5,5V38
		c0,0.6,0.1,1.1,0.3,1.7H58L16.3,85.2l37.1,35.2c1,0.9,2.2,1.4,3.5,1.4c1.3,0,2.7-0.5,3.6-1.6c1.9-2,1.8-5.2-0.2-7.1L30.4,84.7
		l32-34.9H185.9z"/>
	<path class="cls-1" d="M275.4,157.5l-43.8-45.7H95.4v80.4l23.5,0V276c0,2.8,2.3,5,5,5s5-2.3,5-5v-83.8l103.1,0L275.4,157.5z M105.4,182.1v-60.3
		h121.9l33.3,34.7l-32,25.6L105.4,182.1z"/>
</g>
</svg>
