<svg id="Layer_1" data-name="Layer 1" xmlns="http://www.w3.org/2000/svg" viewBox="0 0 360 360">
    <defs>
        <style>.cls-1{fill:#7a8687;}</style>
    </defs>
    <path class="cls-1"
          d="M369.28,372.07H206.72a38.59,38.59,0,0,1-38.55-38.55v-91a38.59,38.59,0,0,1,38.55-38.55H369.28a38.59,38.59,0,0,1,38.55,38.55v91A38.59,38.59,0,0,1,369.28,372.07ZM206.72,216a26.5,26.5,0,0,0-26.47,26.47v91A26.5,26.5,0,0,0,206.72,360H369.28a26.5,26.5,0,0,0,26.47-26.47v-91A26.5,26.5,0,0,0,369.28,216Zm51.73,109.84V242l80.62,42.07Zm12.08-63.91V306l42.36-22Z"
          transform="translate(-108 -108)"/>
    <path class="cls-1"
          d="M288,468c-99.25,0-180-80.75-180-180s80.75-180,180-180,180,80.75,180,180S387.25,468,288,468Zm0-343.9c-90.37,0-163.9,73.52-163.9,163.9S197.63,451.9,288,451.9,451.9,378.37,451.9,288,378.37,124.1,288,124.1Z"
          transform="translate(-108 -108)"/>
</svg>